<svg width="200" height="200" viewBox="0 0 200 200" xmlns="http://www.w3.org/2000/svg">
  <defs>
    <linearGradient id="grad2" x1="0%" y1="0%" x2="100%" y2="100%">
      <stop offset="0%" style="stop-color:#a855f7;stop-opacity:1" />
      <stop offset="100%" style="stop-color:#3b82f6;stop-opacity:1" />
    </linearGradient>
  </defs>
  <circle cx="100" cy="100" r="100" fill="url(#grad2)"/>
  <circle cx="100" cy="80" r="25" fill="#ffffff" opacity="0.9"/>
  <path d="M 60 140 Q 60 120 100 120 Q 140 120 140 140 L 140 160 Q 140 170 130 170 L 70 170 Q 60 170 60 160 Z" fill="#ffffff" opacity="0.9"/>
  <path d="M 80 70 Q 85 65 90 70 Q 95 75 100 70 Q 105 75 110 70 Q 115 65 120 70 Q 115 80 100 85 Q 85 80 80 70 Z" fill="#ffffff" opacity="0.6"/>
  <text x="100" y="185" text-anchor="middle" font-family="Arial, sans-serif" font-size="12" fill="#ffffff">Female Avatar</text>
</svg>
